# Blender v2.90.1 OBJ File: ''
# www.blender.org
o Cube_Cube.001
v -0.500000 0.000000 0.500000
v -0.500000 1.000000 0.500000
v -0.500000 0.000000 0.200000
v -0.500000 1.000000 0.200000
v -0.200000 0.000000 0.500000
v -0.200000 1.000000 0.500000
v -0.200000 0.000000 0.200000
v -0.200000 1.000000 0.200000
vt 0.461539 0.769231
vt 0.461539 0.000000
vt 0.692308 0.000000
vt 0.692308 0.769231
vt 0.230770 0.769231
vt 0.230770 0.000000
vt 0.461539 0.000000
vt 0.461539 0.769231
vt 0.000000 0.769231
vt 0.000000 0.000000
vt 0.230769 0.000000
vt 0.230770 0.769231
vt 0.692308 0.769231
vt 0.692308 0.000000
vt 0.923077 0.000000
vt 0.923078 0.769231
vt 0.230769 1.000000
vt 0.000000 1.000000
vt 0.000000 0.769231
vt 0.230769 0.769231
vn -1.0000 0.0000 0.0000
vn 0.0000 0.0000 -1.0000
vn 1.0000 0.0000 0.0000
vn 0.0000 0.0000 1.0000
vn 0.0000 1.0000 0.0000
s off
f 1/1/1 2/2/1 4/3/1 3/4/1
f 3/5/2 4/6/2 8/7/2 7/8/2
f 7/9/3 8/10/3 6/11/3 5/12/3
f 5/13/4 6/14/4 2/15/4 1/16/4
f 8/17/5 4/18/5 2/19/5 6/20/5
